<?xml version="1.0" standalone="no"?><svg xmlns:xlink="http://www.w3.org/1999/xlink" xmlns="http://www.w3.org/2000/svg" viewBox="0 0 1000 545.4590152851445" preserveAspectRatio="xMaxYMax slice"><g transform="scale(1.5365042684088577)"><rect x="0" y="0" width="650.8333333333333" height="355" fill="#000000"/><rect x="0" y="0" width="59.166666666666664" height="59.166666666666664" fill="#000000"/><rect x="0" y="0" width="29.58" height="29.58" fill="#FFcb74"/><path d="M 0 29.58 A 29.58 29.58 0 0 1 29.58 0 L 29.58 7.395 A 22.185 22.185 0 0 0 7.395 29.58" fill="#FFcb74"/><rect x="29.58" y="0" width="29.58" height="29.58" fill="#111111"/><path d="M 29.58 0 A 29.58 29.58 0 0 1 59.16 29.58 L 51.765 29.58 A 22.185 22.185 0 0 0 29.58 7.395" fill="#FFcb74"/><rect x="0" y="29.58" width="29.58" height="29.58" fill="#111111"/><path d="M 0 29.58 A 29.58 29.58 0 0 0 29.58 59.16 L 29.58 51.765 A 22.185 22.185 0 0 1 7.395 29.58" fill="#FFcb74"/><rect x="29.58" y="29.58" width="29.58" height="29.58" fill="#FFcb74"/><path d="M 29.58 59.16 A 29.58 29.58 0 0 0 59.16 29.58 L 51.765 29.58 A 22.185 22.185 0 0 1 29.58 51.765" fill="#111111"/><rect x="59.17" y="0" width="59.17" height="59.17" fill="#111111"/><rect x="59.17" y="0" width="59.17" height="59.17" fill="#111111"/><rect x="118.33" y="0" width="59.17" height="59.17" fill="#FFcb74"/><path d="M 118.33 0 A 59.17 59.17 0 0 0 177.5 59.17 L 177.5 0" fill="#FFcb74"/><rect x="177.5" y="0" width="59.166666666666664" height="59.166666666666664" fill="#000000"/><rect x="177.5" y="0" width="29.58" height="29.58" fill="#FFcb74"/><path d="M 177.5 0 A 29.58 29.58 0 0 0 207.07999999999998 29.58 L 207.07999999999998 0" fill="#FFcb74"/><rect x="207.08" y="0" width="29.58" height="29.58" fill="#FFcb74"/><path d="M 207.08 29.58 A 29.58 29.58 0 0 0 236.66000000000003 0 L 207.08 0" fill="#FFcb74"/><rect x="177.5" y="29.58" width="29.58" height="29.58" fill="#111111"/><path d="M 177.5 59.16 A 29.58 29.58 0 0 1  207.07999999999998 29.58 L 207.07999999999998 59.16" fill="#FFcb74"/><rect x="207.08" y="29.58" width="29.58" height="29.58" fill="#111111"/><path d="M 207.08 29.58 A 29.58 29.58 0 0 1 236.66000000000003 59.16 L 207.08 59.16" fill="#111111"/><rect x="236.67" y="0" width="59.17" height="59.17" fill="#111111"/><rect x="236.67" y="0" width="59.17" height="59.17" fill="#FFcb74"/><rect x="295.8333333333333" y="0" width="59.166666666666664" height="59.166666666666664" fill="#000000"/><rect x="295.83" y="0" width="29.58" height="29.58" fill="#FFcb74"/><circle cx="310.62" cy="14.79" r="14.79" fill="#111111"/><rect x="325.42" y="0" width="29.58" height="29.58" fill="#111111"/><rect x="325.42" y="0" width="29.58" height="29.58" fill="#FFcb74"/><rect x="295.83" y="29.58" width="29.58" height="29.58" fill="#FFcb74"/><circle cx="310.62" cy="44.37" r="14.79" fill="#FFcb74"/><rect x="325.42" y="29.58" width="29.58" height="29.58" fill="#111111"/><rect x="325.42" y="29.58" width="29.58" height="29.58" fill="#111111"/><rect x="355" y="0" width="59.17" height="59.17" fill="#111111"/><rect x="355" y="0" width="59.17" height="59.17" fill="#111111"/><rect x="414.16666666666663" y="0" width="59.166666666666664" height="59.166666666666664" fill="#000000"/><rect x="414.17" y="0" width="29.58" height="29.58" fill="#111111"/><polygon points="443.75,0 443.75,29.58 414.17,29.58" fill="#111111"/><rect x="443.75" y="0" width="29.58" height="29.58" fill="#FFcb74"/><polygon points="443.75,0 473.33,29.58 443.75,29.58" fill="#111111"/><rect x="414.17" y="29.58" width="29.58" height="29.58" fill="#FFcb74"/><polygon points="414.17,29.58 443.75,29.58 443.75,59.16" fill="#FFcb74"/><rect x="443.75" y="29.58" width="29.58" height="29.58" fill="#111111"/><polygon points="443.75,29.58 473.33,29.58 443.75,59.16" fill="#111111"/><rect x="473.3333333333333" y="0" width="59.166666666666664" height="59.166666666666664" fill="#000000"/><rect x="473.33" y="0" width="29.58" height="29.58" fill="#FFcb74"/><polygon points="502.90999999999997,0 502.90999999999997,29.58 473.33,29.58" fill="#111111"/><rect x="502.92" y="0" width="29.58" height="29.58" fill="#FFcb74"/><polygon points="502.92,0 532.5,29.58 502.92,29.58" fill="#FFcb74"/><rect x="473.33" y="29.58" width="29.58" height="29.58" fill="#FFcb74"/><polygon points="473.33,29.58 502.90999999999997,29.58 473.33,59.16" fill="#111111"/><rect x="502.92" y="29.58" width="29.58" height="29.58" fill="#111111"/><polygon points="502.92,29.58 532.5,29.58 532.5,59.16" fill="#FFcb74"/><rect x="532.5" y="0" width="59.166666666666664" height="59.166666666666664" fill="#000000"/><rect x="532.5" y="0" width="29.58" height="29.58" fill="#FFcb74"/><path d="M 532.5 29.58 A 29.58 29.58 0 0 1 562.08 0 L 562.08 7.395 A 22.185 22.185 0 0 0 539.895 29.58" fill="#111111"/><rect x="562.08" y="0" width="29.58" height="29.58" fill="#111111"/><path d="M 562.08 0 A 29.58 29.58 0 0 1 591.6600000000001 29.58 L 584.265 29.58 A 22.185 22.185 0 0 0 562.08 7.395" fill="#111111"/><rect x="532.5" y="29.58" width="29.58" height="29.58" fill="#FFcb74"/><path d="M 532.5 29.58 A 29.58 29.58 0 0 0 562.08 59.16 L 562.08 51.765 A 22.185 22.185 0 0 1 539.895 29.58" fill="#111111"/><rect x="562.08" y="29.58" width="29.58" height="29.58" fill="#FFcb74"/><path d="M 562.08 59.16 A 29.58 29.58 0 0 0 591.6600000000001 29.58 L 584.265 29.58 A 22.185 22.185 0 0 1 562.08 51.765" fill="#111111"/><rect x="591.6666666666666" y="0" width="59.166666666666664" height="59.166666666666664" fill="#000000"/><rect x="591.67" y="0" width="29.58" height="29.58" fill="#FFcb74"/><path d="M 591.67 29.58 A 29.58 29.58 0 0 1  621.25 0 L 621.25 29.58" fill="#FFcb74"/><rect x="621.25" y="0" width="29.58" height="29.58" fill="#FFcb74"/><path d="M 621.25 0 A 29.58 29.58 0 0 1 650.83 29.58 L 621.25 29.58" fill="#FFcb74"/><rect x="591.67" y="29.58" width="29.58" height="29.58" fill="#111111"/><path d="M 591.67 29.58 A 29.58 29.58 0 0 0 621.25 59.16 L 621.25 29.58" fill="#111111"/><rect x="621.25" y="29.58" width="29.58" height="29.58" fill="#FFcb74"/><path d="M 621.25 59.16 A 29.58 29.58 0 0 0 650.83 29.58 L 621.25 29.58" fill="#FFcb74"/><rect x="0" y="59.17" width="59.17" height="59.17" fill="#111111"/><polygon points="0,59.17 59.17,59.17 59.17,118.34" fill="#111111"/><rect x="59.17" y="59.17" width="59.17" height="59.17" fill="#FFcb74"/><polygon points="59.17,59.17 118.34,59.17 118.34,118.34" fill="#FFcb74"/><rect x="118.33" y="59.17" width="59.17" height="59.17" fill="#FFcb74"/><rect x="118.33" y="59.17" width="59.17" height="59.17" fill="#111111"/><rect x="177.5" y="59.166666666666664" width="59.166666666666664" height="59.166666666666664" fill="#000000"/><rect x="177.5" y="59.17" width="29.58" height="29.58" fill="#FFcb74"/><path d="M 177.5 88.75 A 29.58 29.58 0 0 0 207.07999999999998 59.17 L 177.5 59.17" fill="#FFcb74"/><rect x="207.08" y="59.17" width="29.58" height="29.58" fill="#FFcb74"/><path d="M 207.08 59.17 A 29.58 29.58 0 0 0 236.66000000000003 88.75 L 236.66000000000003 59.17" fill="#111111"/><rect x="177.5" y="88.75" width="29.58" height="29.58" fill="#FFcb74"/><path d="M 177.5 88.75 A 29.58 29.58 0 0 1 207.07999999999998 118.33 L 177.5 118.33" fill="#111111"/><rect x="207.08" y="88.75" width="29.58" height="29.58" fill="#111111"/><path d="M 207.08 118.33 A 29.58 29.58 0 0 1  236.66000000000003 88.75 L 236.66000000000003 118.33" fill="#FFcb74"/><rect x="236.67" y="59.17" width="59.17" height="59.17" fill="#FFcb74"/><rect x="236.67" y="59.17" width="59.17" height="59.17" fill="#111111"/><rect x="295.83" y="59.17" width="59.17" height="59.17" fill="#FFcb74"/><path d="M 295.83 59.17 A 59.17 59.17 0 0 1 355 118.34 L 295.83 118.34" fill="#111111"/><rect x="355" y="59.166666666666664" width="59.166666666666664" height="59.166666666666664" fill="#000000"/><rect x="355" y="59.17" width="29.58" height="29.58" fill="#FFcb74"/><path d="M 355 59.17 A 29.58 29.58 0 0 1 384.58 88.75 L 355 88.75" fill="#111111"/><rect x="384.58" y="59.17" width="29.58" height="29.58" fill="#FFcb74"/><path d="M 384.58 88.75 A 29.58 29.58 0 0 1  414.15999999999997 59.17 L 414.15999999999997 88.75" fill="#FFcb74"/><rect x="355" y="88.75" width="29.58" height="29.58" fill="#111111"/><path d="M 355 118.33 A 29.58 29.58 0 0 0 384.58 88.75 L 355 88.75" fill="#FFcb74"/><rect x="384.58" y="88.75" width="29.58" height="29.58" fill="#FFcb74"/><path d="M 384.58 88.75 A 29.58 29.58 0 0 0 414.15999999999997 118.33 L 414.15999999999997 88.75" fill="#111111"/><rect x="414.16666666666663" y="59.166666666666664" width="59.166666666666664" height="59.166666666666664" fill="#000000"/><rect x="414.17" y="59.17" width="29.58" height="29.58" fill="#FFcb74"/><polygon points="443.75,59.17 443.75,88.75 414.17,88.75" fill="#111111"/><rect x="443.75" y="59.17" width="29.58" height="29.58" fill="#FFcb74"/><polygon points="443.75,59.17 473.33,59.17 443.75,88.75" fill="#111111"/><rect x="414.17" y="88.75" width="29.58" height="29.58" fill="#FFcb74"/><polygon points="414.17,88.75 443.75,88.75 443.75,118.33" fill="#111111"/><rect x="443.75" y="88.75" width="29.58" height="29.58" fill="#FFcb74"/><polygon points="443.75,88.75 473.33,118.33 443.75,118.33" fill="#111111"/><rect x="473.3333333333333" y="59.166666666666664" width="59.166666666666664" height="59.166666666666664" fill="#000000"/><rect x="473.33" y="59.17" width="29.58" height="29.58" fill="#FFcb74"/><path d="M 473.33 59.17 A 29.58 29.58 0 0 1 502.90999999999997 88.75 L 473.33 88.75" fill="#FFcb74"/><rect x="502.92" y="59.17" width="29.58" height="29.58" fill="#111111"/><path d="M 502.92 88.75 A 29.58 29.58 0 0 1  532.5 59.17 L 532.5 88.75" fill="#111111"/><rect x="473.33" y="88.75" width="29.58" height="29.58" fill="#111111"/><path d="M 473.33 118.33 A 29.58 29.58 0 0 0 502.90999999999997 88.75 L 473.33 88.75" fill="#111111"/><rect x="502.92" y="88.75" width="29.58" height="29.58" fill="#FFcb74"/><path d="M 502.92 88.75 A 29.58 29.58 0 0 0 532.5 118.33 L 532.5 88.75" fill="#FFcb74"/><rect x="532.5" y="59.166666666666664" width="59.166666666666664" height="59.166666666666664" fill="#000000"/><rect x="532.5" y="59.17" width="29.58" height="29.58" fill="#FFcb74"/><path d="M 532.5 59.17 A 29.58 29.58 0 0 0 562.08 88.75 L 562.08 59.17" fill="#111111"/><rect x="562.08" y="59.17" width="29.58" height="29.58" fill="#111111"/><path d="M 562.08 88.75 A 29.58 29.58 0 0 0 591.6600000000001 59.17 L 562.08 59.17" fill="#111111"/><rect x="532.5" y="88.75" width="29.58" height="29.58" fill="#FFcb74"/><path d="M 532.5 118.33 A 29.58 29.58 0 0 1  562.08 88.75 L 562.08 118.33" fill="#FFcb74"/><rect x="562.08" y="88.75" width="29.58" height="29.58" fill="#FFcb74"/><path d="M 562.08 88.75 A 29.58 29.58 0 0 1 591.6600000000001 118.33 L 562.08 118.33" fill="#111111"/><rect x="591.6666666666666" y="59.166666666666664" width="59.166666666666664" height="59.166666666666664" fill="#000000"/><rect x="591.67" y="59.17" width="29.58" height="29.58" fill="#FFcb74"/><path d="M 591.67 59.17 A 29.58 29.58 0 0 1 621.25 88.75 L 591.67 88.75" fill="#FFcb74"/><rect x="621.25" y="59.17" width="29.58" height="29.58" fill="#FFcb74"/><path d="M 621.25 88.75 A 29.58 29.58 0 0 1  650.83 59.17 L 650.83 88.75" fill="#111111"/><rect x="591.67" y="88.75" width="29.58" height="29.58" fill="#FFcb74"/><path d="M 591.67 118.33 A 29.58 29.58 0 0 0 621.25 88.75 L 591.67 88.75" fill="#FFcb74"/><rect x="621.25" y="88.75" width="29.58" height="29.58" fill="#FFcb74"/><path d="M 621.25 88.75 A 29.58 29.58 0 0 0 650.83 118.33 L 650.83 88.75" fill="#FFcb74"/><rect x="0" y="118.33" width="59.17" height="59.17" fill="#111111"/><rect x="0" y="118.33" width="59.17" height="59.17" fill="#FFcb74"/><rect x="59.166666666666664" y="118.33333333333333" width="59.166666666666664" height="59.166666666666664" fill="#000000"/><rect x="59.17" y="118.33" width="29.58" height="29.58" fill="#111111"/><circle cx="73.96000000000001" cy="133.12" r="14.79" fill="#111111"/><rect x="88.75" y="118.33" width="29.58" height="29.58" fill="#111111"/><rect x="88.75" y="118.33" width="29.58" height="29.58" fill="#111111"/><rect x="59.17" y="147.92" width="29.58" height="29.58" fill="#FFcb74"/><circle cx="73.96000000000001" cy="162.70999999999998" r="14.79" fill="#FFcb74"/><rect x="88.75" y="147.92" width="29.58" height="29.58" fill="#FFcb74"/><rect x="88.75" y="147.92" width="29.58" height="29.58" fill="#111111"/><rect x="118.33" y="118.33" width="59.17" height="59.17" fill="#FFcb74"/><rect x="118.33" y="118.33" width="59.17" height="59.17" fill="#111111"/><rect x="177.5" y="118.33333333333333" width="59.166666666666664" height="59.166666666666664" fill="#000000"/><rect x="177.5" y="118.33" width="29.58" height="29.58" fill="#FFcb74"/><path d="M 177.5 147.91 A 29.58 29.58 0 0 1  207.07999999999998 118.33 L 207.07999999999998 147.91" fill="#FFcb74"/><rect x="207.08" y="118.33" width="29.58" height="29.58" fill="#FFcb74"/><path d="M 207.08 118.33 A 29.58 29.58 0 0 1 236.66000000000003 147.91 L 207.08 147.91" fill="#FFcb74"/><rect x="177.5" y="147.92" width="29.58" height="29.58" fill="#111111"/><path d="M 177.5 147.92 A 29.58 29.58 0 0 0 207.07999999999998 177.5 L 207.07999999999998 147.92" fill="#111111"/><rect x="207.08" y="147.92" width="29.58" height="29.58" fill="#FFcb74"/><path d="M 207.08 177.5 A 29.58 29.58 0 0 0 236.66000000000003 147.92 L 207.08 147.92" fill="#111111"/><rect x="236.66666666666666" y="118.33333333333333" width="59.166666666666664" height="59.166666666666664" fill="#000000"/><rect x="236.67" y="118.33" width="29.58" height="29.58" fill="#FFcb74"/><path d="M 236.67 147.91 A 29.58 29.58 0 0 1 266.25 118.33 L 266.25 125.725 A 22.185 22.185 0 0 0 244.065 147.91" fill="#111111"/><rect x="266.25" y="118.33" width="29.58" height="29.58" fill="#FFcb74"/><path d="M 266.25 118.33 A 29.58 29.58 0 0 1 295.83 147.91 L 288.435 147.91 A 22.185 22.185 0 0 0 266.25 125.725" fill="#111111"/><rect x="236.67" y="147.92" width="29.58" height="29.58" fill="#FFcb74"/><path d="M 236.67 147.92 A 29.58 29.58 0 0 0 266.25 177.5 L 266.25 170.105 A 22.185 22.185 0 0 1 244.065 147.92" fill="#111111"/><rect x="266.25" y="147.92" width="29.58" height="29.58" fill="#111111"/><path d="M 266.25 177.5 A 29.58 29.58 0 0 0 295.83 147.92 L 288.435 147.92 A 22.185 22.185 0 0 1 266.25 170.105" fill="#111111"/><rect x="295.8333333333333" y="118.33333333333333" width="59.166666666666664" height="59.166666666666664" fill="#000000"/><rect x="295.83" y="118.33" width="29.58" height="29.58" fill="#111111"/><path d="M 295.83 147.91 A 29.58 29.58 0 0 0 325.40999999999997 118.33 L 295.83 118.33" fill="#111111"/><rect x="325.42" y="118.33" width="29.58" height="29.58" fill="#FFcb74"/><path d="M 325.42 118.33 A 29.58 29.58 0 0 0 355 147.91 L 355 118.33" fill="#FFcb74"/><rect x="295.83" y="147.92" width="29.58" height="29.58" fill="#111111"/><path d="M 295.83 147.92 A 29.58 29.58 0 0 1 325.40999999999997 177.5 L 295.83 177.5" fill="#111111"/><rect x="325.42" y="147.92" width="29.58" height="29.58" fill="#111111"/><path d="M 325.42 177.5 A 29.58 29.58 0 0 1  355 147.92 L 355 177.5" fill="#111111"/><rect x="355" y="118.33" width="59.17" height="59.17" fill="#FFcb74"/><rect x="355" y="118.33" width="59.17" height="59.17" fill="#111111"/><rect x="414.16666666666663" y="118.33333333333333" width="59.166666666666664" height="59.166666666666664" fill="#000000"/><rect x="414.17" y="118.33" width="29.58" height="29.58" fill="#111111"/><circle cx="428.96000000000004" cy="133.12" r="14.79" fill="#FFcb74"/><rect x="443.75" y="118.33" width="29.58" height="29.58" fill="#FFcb74"/><rect x="443.75" y="118.33" width="29.58" height="29.58" fill="#FFcb74"/><rect x="414.17" y="147.92" width="29.58" height="29.58" fill="#FFcb74"/><circle cx="428.96000000000004" cy="162.70999999999998" r="14.79" fill="#111111"/><rect x="443.75" y="147.92" width="29.58" height="29.58" fill="#FFcb74"/><rect x="443.75" y="147.92" width="29.58" height="29.58" fill="#111111"/><rect x="473.33" y="118.33" width="59.17" height="59.17" fill="#111111"/><polygon points="473.33,118.33 532.5,118.33 473.33,177.5" fill="#111111"/><rect x="532.5" y="118.33" width="59.17" height="59.17" fill="#FFcb74"/><polygon points="591.67,118.33 591.67,177.5 532.5,177.5" fill="#111111"/><rect x="591.6666666666666" y="118.33333333333333" width="59.166666666666664" height="59.166666666666664" fill="#000000"/><rect x="591.67" y="118.33" width="29.58" height="29.58" fill="#FFcb74"/><circle cx="606.4599999999999" cy="133.12" r="14.79" fill="#FFcb74"/><rect x="621.25" y="118.33" width="29.58" height="29.58" fill="#FFcb74"/><rect x="621.25" y="118.33" width="29.58" height="29.58" fill="#111111"/><rect x="591.67" y="147.92" width="29.58" height="29.58" fill="#111111"/><circle cx="606.4599999999999" cy="162.70999999999998" r="14.79" fill="#FFcb74"/><rect x="621.25" y="147.92" width="29.58" height="29.58" fill="#111111"/><rect x="621.25" y="147.92" width="29.58" height="29.58" fill="#111111"/><rect x="0" y="177.5" width="59.17" height="59.17" fill="#111111"/><polygon points="0,177.5 59.17,236.67000000000002 0,236.67000000000002" fill="#FFcb74"/><rect x="59.17" y="177.5" width="59.17" height="59.17" fill="#111111"/><path d="M 59.17 177.5 A 59.17 59.17 0 0 1 118.34 236.67000000000002 L 59.17 236.67000000000002" fill="#111111"/><rect x="118.33333333333333" y="177.5" width="59.166666666666664" height="59.166666666666664" fill="#000000"/><rect x="118.33" y="177.5" width="29.58" height="29.58" fill="#FFcb74"/><path d="M 118.33 207.07999999999998 A 29.58 29.58 0 0 1  147.91 177.5 L 147.91 207.07999999999998" fill="#111111"/><rect x="147.92" y="177.5" width="29.58" height="29.58" fill="#FFcb74"/><path d="M 147.92 177.5 A 29.58 29.58 0 0 1 177.5 207.07999999999998 L 147.92 207.07999999999998" fill="#FFcb74"/><rect x="118.33" y="207.08" width="29.58" height="29.58" fill="#FFcb74"/><path d="M 118.33 207.08 A 29.58 29.58 0 0 0 147.91 236.66000000000003 L 147.91 207.08" fill="#111111"/><rect x="147.92" y="207.08" width="29.58" height="29.58" fill="#FFcb74"/><path d="M 147.92 236.66000000000003 A 29.58 29.58 0 0 0 177.5 207.08 L 147.92 207.08" fill="#FFcb74"/><rect x="177.5" y="177.5" width="59.17" height="59.17" fill="#FFcb74"/><polygon points="236.67000000000002,177.5 236.67000000000002,236.67000000000002 177.5,236.67000000000002" fill="#111111"/><rect x="236.67" y="177.5" width="59.17" height="59.17" fill="#FFcb74"/><path d="M 236.67 177.5 A 59.17 59.17 0 0 1 295.84 236.67000000000002 L 236.67 236.67000000000002" fill="#111111"/><rect x="295.8333333333333" y="177.5" width="59.166666666666664" height="59.166666666666664" fill="#000000"/><rect x="295.83" y="177.5" width="29.58" height="29.58" fill="#111111"/><path d="M 295.83 207.07999999999998 A 29.58 29.58 0 0 1  325.40999999999997 177.5 L 325.40999999999997 207.07999999999998" fill="#FFcb74"/><rect x="325.42" y="177.5" width="29.58" height="29.58" fill="#111111"/><path d="M 325.42 177.5 A 29.58 29.58 0 0 1 355 207.07999999999998 L 325.42 207.07999999999998" fill="#111111"/><rect x="295.83" y="207.08" width="29.58" height="29.58" fill="#111111"/><path d="M 295.83 207.08 A 29.58 29.58 0 0 0 325.40999999999997 236.66000000000003 L 325.40999999999997 207.08" fill="#FFcb74"/><rect x="325.42" y="207.08" width="29.58" height="29.58" fill="#FFcb74"/><path d="M 325.42 236.66000000000003 A 29.58 29.58 0 0 0 355 207.08 L 325.42 207.08" fill="#FFcb74"/><rect x="355" y="177.5" width="59.17" height="59.17" fill="#FFcb74"/><path d="M 355 236.67000000000002 A 59.17 59.17 0 0 0 414.17 177.5 L 355 177.5" fill="#FFcb74"/><rect x="414.16666666666663" y="177.5" width="59.166666666666664" height="59.166666666666664" fill="#000000"/><rect x="414.17" y="177.5" width="29.58" height="29.58" fill="#111111"/><circle cx="428.96000000000004" cy="192.29" r="14.79" fill="#FFcb74"/><rect x="443.75" y="177.5" width="29.58" height="29.58" fill="#FFcb74"/><rect x="443.75" y="177.5" width="29.58" height="29.58" fill="#FFcb74"/><rect x="414.17" y="207.08" width="29.58" height="29.58" fill="#FFcb74"/><circle cx="428.96000000000004" cy="221.87" r="14.79" fill="#111111"/><rect x="443.75" y="207.08" width="29.58" height="29.58" fill="#FFcb74"/><rect x="443.75" y="207.08" width="29.58" height="29.58" fill="#111111"/><rect x="473.33" y="177.5" width="59.17" height="59.17" fill="#111111"/><path d="M 473.33 177.5 A 59.17 59.17 0 0 1  532.5 236.67000000000002 L 473.33 177.5 A 59.17 59.17 0 0 0 532.5 236.67000000000002" fill="#111111"/><rect x="532.5" y="177.5" width="59.17" height="59.17" fill="#111111"/><path d="M 532.5 236.67000000000002 A 59.17 59.17 0 0 1  591.67 177.5 L 532.5 236.67000000000002 A 59.17 59.17 0 0 0 591.67 177.5" fill="#111111"/><rect x="591.67" y="177.5" width="59.17" height="59.17" fill="#111111"/><path d="M 591.67 177.5 A 59.17 59.17 0 0 1  650.8399999999999 236.67000000000002 L 591.67 177.5 A 59.17 59.17 0 0 0 650.8399999999999 236.67000000000002" fill="#FFcb74"/><rect x="0" y="236.66666666666666" width="59.166666666666664" height="59.166666666666664" fill="#000000"/><rect x="0" y="236.67" width="29.58" height="29.58" fill="#111111"/><path d="M 0 236.67 A 29.58 29.58 0 0 0 29.58 266.25 L 29.58 236.67" fill="#FFcb74"/><rect x="29.58" y="236.67" width="29.58" height="29.58" fill="#FFcb74"/><path d="M 29.58 266.25 A 29.58 29.58 0 0 0 59.16 236.67 L 29.58 236.67" fill="#111111"/><rect x="0" y="266.25" width="29.58" height="29.58" fill="#FFcb74"/><path d="M 0 295.83 A 29.58 29.58 0 0 1  29.58 266.25 L 29.58 295.83" fill="#FFcb74"/><rect x="29.58" y="266.25" width="29.58" height="29.58" fill="#111111"/><path d="M 29.58 266.25 A 29.58 29.58 0 0 1 59.16 295.83 L 29.58 295.83" fill="#111111"/><rect x="59.166666666666664" y="236.66666666666666" width="59.166666666666664" height="59.166666666666664" fill="#000000"/><rect x="59.17" y="236.67" width="29.58" height="29.58" fill="#FFcb74"/><circle cx="73.96000000000001" cy="251.45999999999998" r="14.79" fill="#FFcb74"/><rect x="88.75" y="236.67" width="29.58" height="29.58" fill="#111111"/><rect x="88.75" y="236.67" width="29.58" height="29.58" fill="#111111"/><rect x="59.17" y="266.25" width="29.58" height="29.58" fill="#FFcb74"/><circle cx="73.96000000000001" cy="281.04" r="14.79" fill="#111111"/><rect x="88.75" y="266.25" width="29.58" height="29.58" fill="#FFcb74"/><rect x="88.75" y="266.25" width="29.58" height="29.58" fill="#FFcb74"/><rect x="118.33" y="236.67" width="59.17" height="59.17" fill="#FFcb74"/><rect x="118.33" y="236.67" width="59.17" height="59.17" fill="#111111"/><rect x="177.5" y="236.66666666666666" width="59.166666666666664" height="59.166666666666664" fill="#000000"/><rect x="177.5" y="236.67" width="29.58" height="29.58" fill="#FFcb74"/><path d="M 177.5 266.25 A 29.58 29.58 0 0 0 207.07999999999998 236.67 L 177.5 236.67" fill="#FFcb74"/><rect x="207.08" y="236.67" width="29.58" height="29.58" fill="#FFcb74"/><path d="M 207.08 236.67 A 29.58 29.58 0 0 0 236.66000000000003 266.25 L 236.66000000000003 236.67" fill="#111111"/><rect x="177.5" y="266.25" width="29.58" height="29.58" fill="#111111"/><path d="M 177.5 266.25 A 29.58 29.58 0 0 1 207.07999999999998 295.83 L 177.5 295.83" fill="#111111"/><rect x="207.08" y="266.25" width="29.58" height="29.58" fill="#FFcb74"/><path d="M 207.08 295.83 A 29.58 29.58 0 0 1  236.66000000000003 266.25 L 236.66000000000003 295.83" fill="#111111"/><rect x="236.67" y="236.67" width="59.17" height="59.17" fill="#111111"/><polygon points="295.84,236.67 295.84,295.84 236.67,295.84" fill="#FFcb74"/><rect x="295.8333333333333" y="236.66666666666666" width="59.166666666666664" height="59.166666666666664" fill="#000000"/><rect x="295.83" y="236.67" width="29.58" height="29.58" fill="#111111"/><polygon points="325.40999999999997,236.67 325.40999999999997,266.25 295.83,266.25" fill="#111111"/><rect x="325.42" y="236.67" width="29.58" height="29.58" fill="#FFcb74"/><polygon points="325.42,236.67 355,266.25 325.42,266.25" fill="#FFcb74"/><rect x="295.83" y="266.25" width="29.58" height="29.58" fill="#111111"/><polygon points="295.83,266.25 325.40999999999997,266.25 325.40999999999997,295.83" fill="#111111"/><rect x="325.42" y="266.25" width="29.58" height="29.58" fill="#FFcb74"/><polygon points="325.42,266.25 355,266.25 325.42,295.83" fill="#111111"/><rect x="355" y="236.66666666666666" width="59.166666666666664" height="59.166666666666664" fill="#000000"/><rect x="355" y="236.67" width="29.58" height="29.58" fill="#111111"/><circle cx="369.79" cy="251.45999999999998" r="14.79" fill="#111111"/><rect x="384.58" y="236.67" width="29.58" height="29.58" fill="#FFcb74"/><rect x="384.58" y="236.67" width="29.58" height="29.58" fill="#111111"/><rect x="355" y="266.25" width="29.58" height="29.58" fill="#111111"/><circle cx="369.79" cy="281.04" r="14.79" fill="#FFcb74"/><rect x="384.58" y="266.25" width="29.58" height="29.58" fill="#111111"/><rect x="384.58" y="266.25" width="29.58" height="29.58" fill="#111111"/><rect x="414.17" y="236.67" width="59.17" height="59.17" fill="#111111"/><rect x="414.17" y="236.67" width="59.17" height="59.17" fill="#111111"/><rect x="473.3333333333333" y="236.66666666666666" width="59.166666666666664" height="59.166666666666664" fill="#000000"/><rect x="473.33" y="236.67" width="29.58" height="29.58" fill="#FFcb74"/><circle cx="488.12" cy="251.45999999999998" r="14.79" fill="#111111"/><rect x="502.92" y="236.67" width="29.58" height="29.58" fill="#111111"/><rect x="502.92" y="236.67" width="29.58" height="29.58" fill="#FFcb74"/><rect x="473.33" y="266.25" width="29.58" height="29.58" fill="#FFcb74"/><circle cx="488.12" cy="281.04" r="14.79" fill="#111111"/><rect x="502.92" y="266.25" width="29.58" height="29.58" fill="#111111"/><rect x="502.92" y="266.25" width="29.58" height="29.58" fill="#FFcb74"/><rect x="532.5" y="236.66666666666666" width="59.166666666666664" height="59.166666666666664" fill="#000000"/><rect x="532.5" y="236.67" width="29.58" height="29.58" fill="#111111"/><circle cx="547.29" cy="251.45999999999998" r="14.79" fill="#111111"/><rect x="562.08" y="236.67" width="29.58" height="29.58" fill="#111111"/><rect x="562.08" y="236.67" width="29.58" height="29.58" fill="#111111"/><rect x="532.5" y="266.25" width="29.58" height="29.58" fill="#FFcb74"/><circle cx="547.29" cy="281.04" r="14.79" fill="#111111"/><rect x="562.08" y="266.25" width="29.58" height="29.58" fill="#FFcb74"/><rect x="562.08" y="266.25" width="29.58" height="29.58" fill="#FFcb74"/><rect x="591.67" y="236.67" width="59.17" height="59.17" fill="#111111"/><polygon points="591.67,236.67 650.8399999999999,236.67 591.67,295.84" fill="#FFcb74"/><rect x="0" y="295.83" width="59.17" height="59.17" fill="#FFcb74"/><polygon points="59.17,295.83 59.17,355 0,355" fill="#FFcb74"/><rect x="59.17" y="295.83" width="59.17" height="59.17" fill="#111111"/><path d="M 59.17 295.83 A 59.17 59.17 0 0 0 118.34 355 L 118.34 295.83" fill="#111111"/><rect x="118.33" y="295.83" width="59.17" height="59.17" fill="#111111"/><path d="M 118.33 295.83 A 59.17 59.17 0 0 0 177.5 355 L 177.5 295.83" fill="#FFcb74"/><rect x="177.5" y="295.83" width="59.17" height="59.17" fill="#111111"/><path d="M 177.5 295.83 A 59.17 59.17 0 0 0 236.67000000000002 355 L 236.67000000000002 295.83" fill="#FFcb74"/><rect x="236.67" y="295.83" width="59.17" height="59.17" fill="#FFcb74"/><rect x="236.67" y="295.83" width="59.17" height="59.17" fill="#FFcb74"/><rect x="295.8333333333333" y="295.8333333333333" width="59.166666666666664" height="59.166666666666664" fill="#000000"/><rect x="295.83" y="295.83" width="29.58" height="29.58" fill="#FFcb74"/><path d="M 295.83 325.40999999999997 A 29.58 29.58 0 0 0 325.40999999999997 295.83 L 295.83 295.83" fill="#FFcb74"/><rect x="325.42" y="295.83" width="29.58" height="29.58" fill="#111111"/><path d="M 325.42 295.83 A 29.58 29.58 0 0 0 355 325.40999999999997 L 355 295.83" fill="#FFcb74"/><rect x="295.83" y="325.42" width="29.58" height="29.58" fill="#111111"/><path d="M 295.83 325.42 A 29.58 29.58 0 0 1 325.40999999999997 355 L 295.83 355" fill="#FFcb74"/><rect x="325.42" y="325.42" width="29.58" height="29.58" fill="#FFcb74"/><path d="M 325.42 355 A 29.58 29.58 0 0 1  355 325.42 L 355 355" fill="#FFcb74"/><rect x="355" y="295.8333333333333" width="59.166666666666664" height="59.166666666666664" fill="#000000"/><rect x="355" y="295.83" width="29.58" height="29.58" fill="#FFcb74"/><path d="M 355 295.83 A 29.58 29.58 0 0 0 384.58 325.40999999999997 L 384.58 295.83" fill="#FFcb74"/><rect x="384.58" y="295.83" width="29.58" height="29.58" fill="#FFcb74"/><path d="M 384.58 325.40999999999997 A 29.58 29.58 0 0 0 414.15999999999997 295.83 L 384.58 295.83" fill="#111111"/><rect x="355" y="325.42" width="29.58" height="29.58" fill="#111111"/><path d="M 355 355 A 29.58 29.58 0 0 1  384.58 325.42 L 384.58 355" fill="#FFcb74"/><rect x="384.58" y="325.42" width="29.58" height="29.58" fill="#FFcb74"/><path d="M 384.58 325.42 A 29.58 29.58 0 0 1 414.15999999999997 355 L 384.58 355" fill="#FFcb74"/><rect x="414.16666666666663" y="295.8333333333333" width="59.166666666666664" height="59.166666666666664" fill="#000000"/><rect x="414.17" y="295.83" width="29.58" height="29.58" fill="#FFcb74"/><path d="M 414.17 325.40999999999997 A 29.58 29.58 0 0 1 443.75 295.83 L 443.75 303.22499999999997 A 22.185 22.185 0 0 0 421.565 325.40999999999997" fill="#111111"/><rect x="443.75" y="295.83" width="29.58" height="29.58" fill="#111111"/><path d="M 443.75 295.83 A 29.58 29.58 0 0 1 473.33 325.40999999999997 L 465.935 325.40999999999997 A 22.185 22.185 0 0 0 443.75 303.22499999999997" fill="#FFcb74"/><rect x="414.17" y="325.42" width="29.58" height="29.58" fill="#FFcb74"/><path d="M 414.17 325.42 A 29.58 29.58 0 0 0 443.75 355 L 443.75 347.605 A 22.185 22.185 0 0 1 421.565 325.42" fill="#111111"/><rect x="443.75" y="325.42" width="29.58" height="29.58" fill="#111111"/><path d="M 443.75 355 A 29.58 29.58 0 0 0 473.33 325.42 L 465.935 325.42 A 22.185 22.185 0 0 1 443.75 347.605" fill="#111111"/><rect x="473.3333333333333" y="295.8333333333333" width="59.166666666666664" height="59.166666666666664" fill="#000000"/><rect x="473.33" y="295.83" width="29.58" height="29.58" fill="#FFcb74"/><path d="M 473.33 295.83 A 29.58 29.58 0 0 1 502.90999999999997 325.40999999999997 L 473.33 325.40999999999997" fill="#111111"/><rect x="502.92" y="295.83" width="29.58" height="29.58" fill="#111111"/><path d="M 502.92 325.40999999999997 A 29.58 29.58 0 0 1  532.5 295.83 L 532.5 325.40999999999997" fill="#111111"/><rect x="473.33" y="325.42" width="29.58" height="29.58" fill="#FFcb74"/><path d="M 473.33 355 A 29.58 29.58 0 0 0 502.90999999999997 325.42 L 473.33 325.42" fill="#FFcb74"/><rect x="502.92" y="325.42" width="29.58" height="29.58" fill="#FFcb74"/><path d="M 502.92 325.42 A 29.58 29.58 0 0 0 532.5 355 L 532.5 325.42" fill="#FFcb74"/><rect x="532.5" y="295.8333333333333" width="59.166666666666664" height="59.166666666666664" fill="#000000"/><rect x="532.5" y="295.83" width="29.58" height="29.58" fill="#FFcb74"/><polygon points="562.08,295.83 562.08,325.40999999999997 532.5,325.40999999999997" fill="#111111"/><rect x="562.08" y="295.83" width="29.58" height="29.58" fill="#FFcb74"/><polygon points="562.08,295.83 591.6600000000001,325.40999999999997 562.08,325.40999999999997" fill="#FFcb74"/><rect x="532.5" y="325.42" width="29.58" height="29.58" fill="#111111"/><polygon points="532.5,325.42 562.08,325.42 532.5,355" fill="#111111"/><rect x="562.08" y="325.42" width="29.58" height="29.58" fill="#111111"/><polygon points="562.08,325.42 591.6600000000001,325.42 591.6600000000001,355" fill="#111111"/><rect x="591.6666666666666" y="295.8333333333333" width="59.166666666666664" height="59.166666666666664" fill="#000000"/><rect x="591.67" y="295.83" width="29.58" height="29.58" fill="#111111"/><path d="M 591.67 325.40999999999997 A 29.58 29.58 0 0 1 621.25 295.83 L 621.25 303.22499999999997 A 22.185 22.185 0 0 0 599.0649999999999 325.40999999999997" fill="#FFcb74"/><rect x="621.25" y="295.83" width="29.58" height="29.58" fill="#111111"/><path d="M 621.25 295.83 A 29.58 29.58 0 0 1 650.83 325.40999999999997 L 643.435 325.40999999999997 A 22.185 22.185 0 0 0 621.25 303.22499999999997" fill="#FFcb74"/><rect x="591.67" y="325.42" width="29.58" height="29.58" fill="#FFcb74"/><path d="M 591.67 325.42 A 29.58 29.58 0 0 0 621.25 355 L 621.25 347.605 A 22.185 22.185 0 0 1 599.0649999999999 325.42" fill="#FFcb74"/><rect x="621.25" y="325.42" width="29.58" height="29.58" fill="#111111"/><path d="M 621.25 355 A 29.58 29.58 0 0 0 650.83 325.42 L 643.435 325.42 A 22.185 22.185 0 0 1 621.25 347.605" fill="#111111"/></g></svg>