<?xml version="1.0" standalone="no"?><svg xmlns:xlink="http://www.w3.org/1999/xlink" xmlns="http://www.w3.org/2000/svg" viewBox="0 0 1000 545.4590152851445" preserveAspectRatio="xMaxYMax slice"><g transform="scale(1.5365042684088577)"><rect x="0" y="0" width="650.8333333333333" height="355" fill="#1f1f1f"/><rect x="0" y="0" width="59.166666666666664" height="59.166666666666664" fill="#1f1f1f"/><rect x="0" y="0" width="29.58" height="29.58" fill="#111111"/><circle cx="14.79" cy="14.79" r="14.79" fill="#111111"/><rect x="29.58" y="0" width="29.58" height="29.58" fill="#111111"/><rect x="29.58" y="0" width="29.58" height="29.58" fill="#111111"/><rect x="0" y="29.58" width="29.58" height="29.58" fill="#111111"/><circle cx="14.79" cy="44.37" r="14.79" fill="#111111"/><rect x="29.58" y="29.58" width="29.58" height="29.58" fill="#151515"/><rect x="29.58" y="29.58" width="29.58" height="29.58" fill="#111111"/><rect x="59.17" y="0" width="59.17" height="59.17" fill="#111111"/><polygon points="59.17,0 118.34,0 118.34,59.17" fill="#111111"/><rect x="118.33" y="0" width="59.17" height="59.17" fill="#111111"/><polygon points="177.5,0 177.5,59.17 118.33,59.17" fill="#151515"/><rect x="177.5" y="0" width="59.17" height="59.17" fill="#151515"/><polygon points="236.67000000000002,0 236.67000000000002,59.17 177.5,59.17" fill="#151515"/><rect x="236.66666666666666" y="0" width="59.166666666666664" height="59.166666666666664" fill="#1f1f1f"/><rect x="236.67" y="0" width="29.58" height="29.58" fill="#111111"/><polygon points="266.25,0 266.25,29.58 236.67,29.58" fill="#151515"/><rect x="266.25" y="0" width="29.58" height="29.58" fill="#111111"/><polygon points="266.25,0 295.83,0 266.25,29.58" fill="#111111"/><rect x="236.67" y="29.58" width="29.58" height="29.58" fill="#151515"/><polygon points="236.67,29.58 266.25,29.58 266.25,59.16" fill="#111111"/><rect x="266.25" y="29.58" width="29.58" height="29.58" fill="#151515"/><polygon points="266.25,29.58 295.83,59.16 266.25,59.16" fill="#151515"/><rect x="295.83" y="0" width="59.17" height="59.17" fill="#151515"/><rect x="295.83" y="0" width="59.17" height="59.17" fill="#151515"/><rect x="355" y="0" width="59.166666666666664" height="59.166666666666664" fill="#1f1f1f"/><rect x="355" y="0" width="29.58" height="29.58" fill="#111111"/><path d="M 355 0 A 29.58 29.58 0 0 1 384.58 29.58 L 355 29.58" fill="#111111"/><rect x="384.58" y="0" width="29.58" height="29.58" fill="#111111"/><path d="M 384.58 29.58 A 29.58 29.58 0 0 1  414.15999999999997 0 L 414.15999999999997 29.58" fill="#111111"/><rect x="355" y="29.58" width="29.58" height="29.58" fill="#111111"/><path d="M 355 59.16 A 29.58 29.58 0 0 0 384.58 29.58 L 355 29.58" fill="#151515"/><rect x="384.58" y="29.58" width="29.58" height="29.58" fill="#111111"/><path d="M 384.58 29.58 A 29.58 29.58 0 0 0 414.15999999999997 59.16 L 414.15999999999997 29.58" fill="#151515"/><rect x="414.17" y="0" width="59.17" height="59.17" fill="#151515"/><polygon points="414.17,0 473.34000000000003,59.17 414.17,59.17" fill="#151515"/><rect x="473.3333333333333" y="0" width="59.166666666666664" height="59.166666666666664" fill="#1f1f1f"/><rect x="473.33" y="0" width="29.58" height="29.58" fill="#151515"/><polygon points="502.90999999999997,0 502.90999999999997,29.58 473.33,29.58" fill="#111111"/><rect x="502.92" y="0" width="29.58" height="29.58" fill="#151515"/><polygon points="502.92,0 532.5,29.58 502.92,29.58" fill="#151515"/><rect x="473.33" y="29.58" width="29.58" height="29.58" fill="#111111"/><polygon points="473.33,29.58 502.90999999999997,29.58 502.90999999999997,59.16" fill="#151515"/><rect x="502.92" y="29.58" width="29.58" height="29.58" fill="#111111"/><polygon points="502.92,29.58 532.5,29.58 502.92,59.16" fill="#151515"/><rect x="532.5" y="0" width="59.17" height="59.17" fill="#111111"/><path d="M 532.5 0 A 59.17 59.17 0 0 1 591.67 59.17 L 532.5 59.17" fill="#111111"/><rect x="591.67" y="0" width="59.17" height="59.17" fill="#151515"/><polygon points="650.8399999999999,0 650.8399999999999,59.17 591.67,59.17" fill="#151515"/><rect x="0" y="59.17" width="59.17" height="59.17" fill="#151515"/><polygon points="0,59.17 59.17,118.34 0,118.34" fill="#111111"/><rect x="59.17" y="59.17" width="59.17" height="59.17" fill="#111111"/><rect x="59.17" y="59.17" width="59.17" height="59.17" fill="#111111"/><rect x="118.33333333333333" y="59.166666666666664" width="59.166666666666664" height="59.166666666666664" fill="#1f1f1f"/><rect x="118.33" y="59.17" width="29.58" height="29.58" fill="#151515"/><path d="M 118.33 88.75 A 29.58 29.58 0 0 1  147.91 59.17 L 147.91 88.75" fill="#151515"/><rect x="147.92" y="59.17" width="29.58" height="29.58" fill="#151515"/><path d="M 147.92 59.17 A 29.58 29.58 0 0 1 177.5 88.75 L 147.92 88.75" fill="#151515"/><rect x="118.33" y="88.75" width="29.58" height="29.58" fill="#151515"/><path d="M 118.33 88.75 A 29.58 29.58 0 0 0 147.91 118.33 L 147.91 88.75" fill="#111111"/><rect x="147.92" y="88.75" width="29.58" height="29.58" fill="#151515"/><path d="M 147.92 118.33 A 29.58 29.58 0 0 0 177.5 88.75 L 147.92 88.75" fill="#151515"/><rect x="177.5" y="59.166666666666664" width="59.166666666666664" height="59.166666666666664" fill="#1f1f1f"/><rect x="177.5" y="59.17" width="29.58" height="29.58" fill="#151515"/><path d="M 177.5 88.75 A 29.58 29.58 0 0 1 207.07999999999998 59.17 L 207.07999999999998 66.565 A 22.185 22.185 0 0 0 184.895 88.75" fill="#151515"/><rect x="207.08" y="59.17" width="29.58" height="29.58" fill="#111111"/><path d="M 207.08 59.17 A 29.58 29.58 0 0 1 236.66000000000003 88.75 L 229.26500000000001 88.75 A 22.185 22.185 0 0 0 207.08 66.565" fill="#111111"/><rect x="177.5" y="88.75" width="29.58" height="29.58" fill="#151515"/><path d="M 177.5 88.75 A 29.58 29.58 0 0 0 207.07999999999998 118.33 L 207.07999999999998 110.935 A 22.185 22.185 0 0 1 184.895 88.75" fill="#151515"/><rect x="207.08" y="88.75" width="29.58" height="29.58" fill="#151515"/><path d="M 207.08 118.33 A 29.58 29.58 0 0 0 236.66000000000003 88.75 L 229.26500000000001 88.75 A 22.185 22.185 0 0 1 207.08 110.935" fill="#151515"/><rect x="236.66666666666666" y="59.166666666666664" width="59.166666666666664" height="59.166666666666664" fill="#1f1f1f"/><rect x="236.67" y="59.17" width="29.58" height="29.58" fill="#151515"/><path d="M 236.67 59.17 A 29.58 29.58 0 0 0 266.25 88.75 L 266.25 59.17" fill="#151515"/><rect x="266.25" y="59.17" width="29.58" height="29.58" fill="#111111"/><path d="M 266.25 88.75 A 29.58 29.58 0 0 0 295.83 59.17 L 266.25 59.17" fill="#151515"/><rect x="236.67" y="88.75" width="29.58" height="29.58" fill="#111111"/><path d="M 236.67 118.33 A 29.58 29.58 0 0 1  266.25 88.75 L 266.25 118.33" fill="#151515"/><rect x="266.25" y="88.75" width="29.58" height="29.58" fill="#151515"/><path d="M 266.25 88.75 A 29.58 29.58 0 0 1 295.83 118.33 L 266.25 118.33" fill="#111111"/><rect x="295.83" y="59.17" width="59.17" height="59.17" fill="#111111"/><polygon points="295.83,59.17 355,118.34 295.83,118.34" fill="#151515"/><rect x="355" y="59.17" width="59.17" height="59.17" fill="#151515"/><polygon points="355,59.17 414.17,59.17 355,118.34" fill="#151515"/><rect x="414.17" y="59.17" width="59.17" height="59.17" fill="#151515"/><polygon points="414.17,59.17 473.34000000000003,118.34 414.17,118.34" fill="#111111"/><rect x="473.3333333333333" y="59.166666666666664" width="59.166666666666664" height="59.166666666666664" fill="#1f1f1f"/><rect x="473.33" y="59.17" width="29.58" height="29.58" fill="#111111"/><path d="M 473.33 88.75 A 29.58 29.58 0 0 1  502.90999999999997 59.17 L 502.90999999999997 88.75" fill="#151515"/><rect x="502.92" y="59.17" width="29.58" height="29.58" fill="#151515"/><path d="M 502.92 59.17 A 29.58 29.58 0 0 1 532.5 88.75 L 502.92 88.75" fill="#151515"/><rect x="473.33" y="88.75" width="29.58" height="29.58" fill="#111111"/><path d="M 473.33 88.75 A 29.58 29.58 0 0 0 502.90999999999997 118.33 L 502.90999999999997 88.75" fill="#111111"/><rect x="502.92" y="88.75" width="29.58" height="29.58" fill="#111111"/><path d="M 502.92 118.33 A 29.58 29.58 0 0 0 532.5 88.75 L 502.92 88.75" fill="#111111"/><rect x="532.5" y="59.17" width="59.17" height="59.17" fill="#111111"/><polygon points="532.5,59.17 591.67,59.17 532.5,118.34" fill="#111111"/><rect x="591.6666666666666" y="59.166666666666664" width="59.166666666666664" height="59.166666666666664" fill="#1f1f1f"/><rect x="591.67" y="59.17" width="29.58" height="29.58" fill="#151515"/><polygon points="621.25,59.17 621.25,88.75 591.67,88.75" fill="#111111"/><rect x="621.25" y="59.17" width="29.58" height="29.58" fill="#111111"/><polygon points="621.25,59.17 650.83,88.75 621.25,88.75" fill="#111111"/><rect x="591.67" y="88.75" width="29.58" height="29.58" fill="#111111"/><polygon points="591.67,88.75 621.25,88.75 621.25,118.33" fill="#111111"/><rect x="621.25" y="88.75" width="29.58" height="29.58" fill="#151515"/><polygon points="621.25,88.75 650.83,88.75 621.25,118.33" fill="#151515"/><rect x="0" y="118.33" width="59.17" height="59.17" fill="#111111"/><polygon points="0,118.33 59.17,118.33 59.17,177.5" fill="#151515"/><rect x="59.17" y="118.33" width="59.17" height="59.17" fill="#111111"/><rect x="59.17" y="118.33" width="59.17" height="59.17" fill="#151515"/><rect x="118.33" y="118.33" width="59.17" height="59.17" fill="#151515"/><rect x="118.33" y="118.33" width="59.17" height="59.17" fill="#111111"/><rect x="177.5" y="118.33" width="59.17" height="59.17" fill="#111111"/><path d="M 177.5 177.5 A 59.17 59.17 0 0 0 236.67000000000002 118.33 L 177.5 118.33" fill="#151515"/><rect x="236.66666666666666" y="118.33333333333333" width="59.166666666666664" height="59.166666666666664" fill="#1f1f1f"/><rect x="236.67" y="118.33" width="29.58" height="29.58" fill="#111111"/><polygon points="266.25,118.33 266.25,147.91 236.67,147.91" fill="#111111"/><rect x="266.25" y="118.33" width="29.58" height="29.58" fill="#151515"/><polygon points="266.25,118.33 295.83,147.91 266.25,147.91" fill="#111111"/><rect x="236.67" y="147.92" width="29.58" height="29.58" fill="#151515"/><polygon points="236.67,147.92 266.25,147.92 266.25,177.5" fill="#111111"/><rect x="266.25" y="147.92" width="29.58" height="29.58" fill="#111111"/><polygon points="266.25,147.92 295.83,147.92 266.25,177.5" fill="#111111"/><rect x="295.8333333333333" y="118.33333333333333" width="59.166666666666664" height="59.166666666666664" fill="#1f1f1f"/><rect x="295.83" y="118.33" width="29.58" height="29.58" fill="#111111"/><circle cx="310.62" cy="133.12" r="14.79" fill="#111111"/><rect x="325.42" y="118.33" width="29.58" height="29.58" fill="#111111"/><rect x="325.42" y="118.33" width="29.58" height="29.58" fill="#151515"/><rect x="295.83" y="147.92" width="29.58" height="29.58" fill="#111111"/><circle cx="310.62" cy="162.70999999999998" r="14.79" fill="#111111"/><rect x="325.42" y="147.92" width="29.58" height="29.58" fill="#111111"/><rect x="325.42" y="147.92" width="29.58" height="29.58" fill="#111111"/><rect x="355" y="118.33333333333333" width="59.166666666666664" height="59.166666666666664" fill="#1f1f1f"/><rect x="355" y="118.33" width="29.58" height="29.58" fill="#151515"/><path d="M 355 147.91 A 29.58 29.58 0 0 1 384.58 118.33 L 384.58 125.725 A 22.185 22.185 0 0 0 362.395 147.91" fill="#111111"/><rect x="384.58" y="118.33" width="29.58" height="29.58" fill="#111111"/><path d="M 384.58 118.33 A 29.58 29.58 0 0 1 414.15999999999997 147.91 L 406.765 147.91 A 22.185 22.185 0 0 0 384.58 125.725" fill="#151515"/><rect x="355" y="147.92" width="29.58" height="29.58" fill="#111111"/><path d="M 355 147.92 A 29.58 29.58 0 0 0 384.58 177.5 L 384.58 170.105 A 22.185 22.185 0 0 1 362.395 147.92" fill="#151515"/><rect x="384.58" y="147.92" width="29.58" height="29.58" fill="#151515"/><path d="M 384.58 177.5 A 29.58 29.58 0 0 0 414.15999999999997 147.92 L 406.765 147.92 A 22.185 22.185 0 0 1 384.58 170.105" fill="#151515"/><rect x="414.17" y="118.33" width="59.17" height="59.17" fill="#111111"/><path d="M 414.17 177.5 A 59.17 59.17 0 0 1  473.34000000000003 118.33 L 414.17 177.5 A 59.17 59.17 0 0 0 473.34000000000003 118.33" fill="#151515"/><rect x="473.3333333333333" y="118.33333333333333" width="59.166666666666664" height="59.166666666666664" fill="#1f1f1f"/><rect x="473.33" y="118.33" width="29.58" height="29.58" fill="#111111"/><polygon points="502.90999999999997,118.33 502.90999999999997,147.91 473.33,147.91" fill="#111111"/><rect x="502.92" y="118.33" width="29.58" height="29.58" fill="#111111"/><polygon points="502.92,118.33 532.5,147.91 502.92,147.91" fill="#111111"/><rect x="473.33" y="147.92" width="29.58" height="29.58" fill="#151515"/><polygon points="473.33,147.92 502.90999999999997,147.92 473.33,177.5" fill="#111111"/><rect x="502.92" y="147.92" width="29.58" height="29.58" fill="#151515"/><polygon points="502.92,147.92 532.5,147.92 532.5,177.5" fill="#151515"/><rect x="532.5" y="118.33333333333333" width="59.166666666666664" height="59.166666666666664" fill="#1f1f1f"/><rect x="532.5" y="118.33" width="29.58" height="29.58" fill="#151515"/><path d="M 532.5 147.91 A 29.58 29.58 0 0 1  562.08 118.33 L 562.08 147.91" fill="#111111"/><rect x="562.08" y="118.33" width="29.58" height="29.58" fill="#151515"/><path d="M 562.08 118.33 A 29.58 29.58 0 0 1 591.6600000000001 147.91 L 562.08 147.91" fill="#111111"/><rect x="532.5" y="147.92" width="29.58" height="29.58" fill="#111111"/><path d="M 532.5 147.92 A 29.58 29.58 0 0 0 562.08 177.5 L 562.08 147.92" fill="#151515"/><rect x="562.08" y="147.92" width="29.58" height="29.58" fill="#151515"/><path d="M 562.08 177.5 A 29.58 29.58 0 0 0 591.6600000000001 147.92 L 562.08 147.92" fill="#151515"/><rect x="591.67" y="118.33" width="59.17" height="59.17" fill="#151515"/><path d="M 591.67 118.33 A 59.17 59.17 0 0 1  650.8399999999999 177.5 L 591.67 118.33 A 59.17 59.17 0 0 0 650.8399999999999 177.5" fill="#151515"/><rect x="0" y="177.5" width="59.166666666666664" height="59.166666666666664" fill="#1f1f1f"/><rect x="0" y="177.5" width="29.58" height="29.58" fill="#151515"/><polygon points="29.58,177.5 29.58,207.07999999999998 0,207.07999999999998" fill="#151515"/><rect x="29.58" y="177.5" width="29.58" height="29.58" fill="#111111"/><polygon points="29.58,177.5 59.16,177.5 29.58,207.07999999999998" fill="#111111"/><rect x="0" y="207.08" width="29.58" height="29.58" fill="#151515"/><polygon points="0,207.08 29.58,207.08 29.58,236.66000000000003" fill="#111111"/><rect x="29.58" y="207.08" width="29.58" height="29.58" fill="#151515"/><polygon points="29.58,207.08 59.16,236.66000000000003 29.58,236.66000000000003" fill="#151515"/><rect x="59.166666666666664" y="177.5" width="59.166666666666664" height="59.166666666666664" fill="#1f1f1f"/><rect x="59.17" y="177.5" width="29.58" height="29.58" fill="#111111"/><polygon points="88.75,177.5 88.75,207.07999999999998 59.17,207.07999999999998" fill="#111111"/><rect x="88.75" y="177.5" width="29.58" height="29.58" fill="#151515"/><polygon points="88.75,177.5 118.33,177.5 88.75,207.07999999999998" fill="#151515"/><rect x="59.17" y="207.08" width="29.58" height="29.58" fill="#111111"/><polygon points="59.17,207.08 88.75,207.08 88.75,236.66000000000003" fill="#111111"/><rect x="88.75" y="207.08" width="29.58" height="29.58" fill="#111111"/><polygon points="88.75,207.08 118.33,236.66000000000003 88.75,236.66000000000003" fill="#151515"/><rect x="118.33" y="177.5" width="59.17" height="59.17" fill="#111111"/><path d="M 118.33 236.67000000000002 A 59.17 59.17 0 0 0 177.5 177.5 L 118.33 177.5" fill="#151515"/><rect x="177.5" y="177.5" width="59.166666666666664" height="59.166666666666664" fill="#1f1f1f"/><rect x="177.5" y="177.5" width="29.58" height="29.58" fill="#111111"/><path d="M 177.5 177.5 A 29.58 29.58 0 0 1 207.07999999999998 207.07999999999998 L 177.5 207.07999999999998" fill="#151515"/><rect x="207.08" y="177.5" width="29.58" height="29.58" fill="#111111"/><path d="M 207.08 207.07999999999998 A 29.58 29.58 0 0 1  236.66000000000003 177.5 L 236.66000000000003 207.07999999999998" fill="#151515"/><rect x="177.5" y="207.08" width="29.58" height="29.58" fill="#151515"/><path d="M 177.5 236.66000000000003 A 29.58 29.58 0 0 0 207.07999999999998 207.08 L 177.5 207.08" fill="#151515"/><rect x="207.08" y="207.08" width="29.58" height="29.58" fill="#111111"/><path d="M 207.08 207.08 A 29.58 29.58 0 0 0 236.66000000000003 236.66000000000003 L 236.66000000000003 207.08" fill="#111111"/><rect x="236.66666666666666" y="177.5" width="59.166666666666664" height="59.166666666666664" fill="#1f1f1f"/><rect x="236.67" y="177.5" width="29.58" height="29.58" fill="#111111"/><polygon points="266.25,177.5 266.25,207.07999999999998 236.67,207.07999999999998" fill="#111111"/><rect x="266.25" y="177.5" width="29.58" height="29.58" fill="#111111"/><polygon points="266.25,177.5 295.83,207.07999999999998 266.25,207.07999999999998" fill="#111111"/><rect x="236.67" y="207.08" width="29.58" height="29.58" fill="#111111"/><polygon points="236.67,207.08 266.25,207.08 266.25,236.66000000000003" fill="#151515"/><rect x="266.25" y="207.08" width="29.58" height="29.58" fill="#151515"/><polygon points="266.25,207.08 295.83,207.08 266.25,236.66000000000003" fill="#111111"/><rect x="295.8333333333333" y="177.5" width="59.166666666666664" height="59.166666666666664" fill="#1f1f1f"/><rect x="295.83" y="177.5" width="29.58" height="29.58" fill="#151515"/><path d="M 295.83 177.5 A 29.58 29.58 0 0 1 325.40999999999997 207.07999999999998 L 295.83 207.07999999999998" fill="#151515"/><rect x="325.42" y="177.5" width="29.58" height="29.58" fill="#151515"/><path d="M 325.42 207.07999999999998 A 29.58 29.58 0 0 1  355 177.5 L 355 207.07999999999998" fill="#111111"/><rect x="295.83" y="207.08" width="29.58" height="29.58" fill="#111111"/><path d="M 295.83 236.66000000000003 A 29.58 29.58 0 0 0 325.40999999999997 207.08 L 295.83 207.08" fill="#111111"/><rect x="325.42" y="207.08" width="29.58" height="29.58" fill="#111111"/><path d="M 325.42 207.08 A 29.58 29.58 0 0 0 355 236.66000000000003 L 355 207.08" fill="#151515"/><rect x="355" y="177.5" width="59.166666666666664" height="59.166666666666664" fill="#1f1f1f"/><rect x="355" y="177.5" width="29.58" height="29.58" fill="#111111"/><polygon points="384.58,177.5 384.58,207.07999999999998 355,207.07999999999998" fill="#151515"/><rect x="384.58" y="177.5" width="29.58" height="29.58" fill="#111111"/><polygon points="384.58,177.5 414.15999999999997,207.07999999999998 384.58,207.07999999999998" fill="#111111"/><rect x="355" y="207.08" width="29.58" height="29.58" fill="#151515"/><polygon points="355,207.08 384.58,207.08 355,236.66000000000003" fill="#111111"/><rect x="384.58" y="207.08" width="29.58" height="29.58" fill="#151515"/><polygon points="384.58,207.08 414.15999999999997,207.08 414.15999999999997,236.66000000000003" fill="#111111"/><rect x="414.16666666666663" y="177.5" width="59.166666666666664" height="59.166666666666664" fill="#1f1f1f"/><rect x="414.17" y="177.5" width="29.58" height="29.58" fill="#111111"/><path d="M 414.17 207.07999999999998 A 29.58 29.58 0 0 0 443.75 177.5 L 414.17 177.5" fill="#151515"/><rect x="443.75" y="177.5" width="29.58" height="29.58" fill="#111111"/><path d="M 443.75 177.5 A 29.58 29.58 0 0 0 473.33 207.07999999999998 L 473.33 177.5" fill="#111111"/><rect x="414.17" y="207.08" width="29.58" height="29.58" fill="#111111"/><path d="M 414.17 207.08 A 29.58 29.58 0 0 1 443.75 236.66000000000003 L 414.17 236.66000000000003" fill="#111111"/><rect x="443.75" y="207.08" width="29.58" height="29.58" fill="#111111"/><path d="M 443.75 236.66000000000003 A 29.58 29.58 0 0 1  473.33 207.08 L 473.33 236.66000000000003" fill="#151515"/><rect x="473.33" y="177.5" width="59.17" height="59.17" fill="#111111"/><rect x="473.33" y="177.5" width="59.17" height="59.17" fill="#111111"/><rect x="532.5" y="177.5" width="59.17" height="59.17" fill="#111111"/><polygon points="532.5,177.5 591.67,177.5 591.67,236.67000000000002" fill="#151515"/><rect x="591.67" y="177.5" width="59.17" height="59.17" fill="#151515"/><rect x="591.67" y="177.5" width="59.17" height="59.17" fill="#111111"/><rect x="0" y="236.66666666666666" width="59.166666666666664" height="59.166666666666664" fill="#1f1f1f"/><rect x="0" y="236.67" width="29.58" height="29.58" fill="#151515"/><path d="M 0 236.67 A 29.58 29.58 0 0 1 29.58 266.25 L 0 266.25" fill="#151515"/><rect x="29.58" y="236.67" width="29.58" height="29.58" fill="#151515"/><path d="M 29.58 266.25 A 29.58 29.58 0 0 1  59.16 236.67 L 59.16 266.25" fill="#151515"/><rect x="0" y="266.25" width="29.58" height="29.58" fill="#111111"/><path d="M 0 295.83 A 29.58 29.58 0 0 0 29.58 266.25 L 0 266.25" fill="#111111"/><rect x="29.58" y="266.25" width="29.58" height="29.58" fill="#111111"/><path d="M 29.58 266.25 A 29.58 29.58 0 0 0 59.16 295.83 L 59.16 266.25" fill="#151515"/><rect x="59.166666666666664" y="236.66666666666666" width="59.166666666666664" height="59.166666666666664" fill="#1f1f1f"/><rect x="59.17" y="236.67" width="29.58" height="29.58" fill="#151515"/><path d="M 59.17 266.25 A 29.58 29.58 0 0 1  88.75 236.67 L 88.75 266.25" fill="#151515"/><rect x="88.75" y="236.67" width="29.58" height="29.58" fill="#111111"/><path d="M 88.75 236.67 A 29.58 29.58 0 0 1 118.33 266.25 L 88.75 266.25" fill="#151515"/><rect x="59.17" y="266.25" width="29.58" height="29.58" fill="#151515"/><path d="M 59.17 266.25 A 29.58 29.58 0 0 0 88.75 295.83 L 88.75 266.25" fill="#151515"/><rect x="88.75" y="266.25" width="29.58" height="29.58" fill="#111111"/><path d="M 88.75 295.83 A 29.58 29.58 0 0 0 118.33 266.25 L 88.75 266.25" fill="#151515"/><rect x="118.33" y="236.67" width="59.17" height="59.17" fill="#111111"/><path d="M 118.33 236.67 A 59.17 59.17 0 0 1  177.5 295.84 L 118.33 236.67 A 59.17 59.17 0 0 0 177.5 295.84" fill="#111111"/><rect x="177.5" y="236.66666666666666" width="59.166666666666664" height="59.166666666666664" fill="#1f1f1f"/><rect x="177.5" y="236.67" width="29.58" height="29.58" fill="#151515"/><path d="M 177.5 266.25 A 29.58 29.58 0 0 1  207.07999999999998 236.67 L 207.07999999999998 266.25" fill="#151515"/><rect x="207.08" y="236.67" width="29.58" height="29.58" fill="#151515"/><path d="M 207.08 236.67 A 29.58 29.58 0 0 1 236.66000000000003 266.25 L 207.08 266.25" fill="#111111"/><rect x="177.5" y="266.25" width="29.58" height="29.58" fill="#111111"/><path d="M 177.5 266.25 A 29.58 29.58 0 0 0 207.07999999999998 295.83 L 207.07999999999998 266.25" fill="#151515"/><rect x="207.08" y="266.25" width="29.58" height="29.58" fill="#111111"/><path d="M 207.08 295.83 A 29.58 29.58 0 0 0 236.66000000000003 266.25 L 207.08 266.25" fill="#111111"/><rect x="236.66666666666666" y="236.66666666666666" width="59.166666666666664" height="59.166666666666664" fill="#1f1f1f"/><rect x="236.67" y="236.67" width="29.58" height="29.58" fill="#111111"/><path d="M 236.67 236.67 A 29.58 29.58 0 0 0 266.25 266.25 L 266.25 236.67" fill="#111111"/><rect x="266.25" y="236.67" width="29.58" height="29.58" fill="#151515"/><path d="M 266.25 266.25 A 29.58 29.58 0 0 0 295.83 236.67 L 266.25 236.67" fill="#111111"/><rect x="236.67" y="266.25" width="29.58" height="29.58" fill="#151515"/><path d="M 236.67 295.83 A 29.58 29.58 0 0 1  266.25 266.25 L 266.25 295.83" fill="#151515"/><rect x="266.25" y="266.25" width="29.58" height="29.58" fill="#111111"/><path d="M 266.25 266.25 A 29.58 29.58 0 0 1 295.83 295.83 L 266.25 295.83" fill="#111111"/><rect x="295.8333333333333" y="236.66666666666666" width="59.166666666666664" height="59.166666666666664" fill="#1f1f1f"/><rect x="295.83" y="236.67" width="29.58" height="29.58" fill="#111111"/><polygon points="325.40999999999997,236.67 325.40999999999997,266.25 295.83,266.25" fill="#151515"/><rect x="325.42" y="236.67" width="29.58" height="29.58" fill="#151515"/><polygon points="325.42,236.67 355,236.67 325.42,266.25" fill="#151515"/><rect x="295.83" y="266.25" width="29.58" height="29.58" fill="#151515"/><polygon points="295.83,266.25 325.40999999999997,266.25 325.40999999999997,295.83" fill="#111111"/><rect x="325.42" y="266.25" width="29.58" height="29.58" fill="#151515"/><polygon points="325.42,266.25 355,295.83 325.42,295.83" fill="#111111"/><rect x="355" y="236.67" width="59.17" height="59.17" fill="#151515"/><path d="M 355 295.84 A 59.17 59.17 0 0 1  414.17 236.67 L 355 295.84 A 59.17 59.17 0 0 0 414.17 236.67" fill="#111111"/><rect x="414.17" y="236.67" width="59.17" height="59.17" fill="#111111"/><rect x="414.17" y="236.67" width="59.17" height="59.17" fill="#151515"/><rect x="473.3333333333333" y="236.66666666666666" width="59.166666666666664" height="59.166666666666664" fill="#1f1f1f"/><rect x="473.33" y="236.67" width="29.58" height="29.58" fill="#111111"/><path d="M 473.33 236.67 A 29.58 29.58 0 0 0 502.90999999999997 266.25 L 502.90999999999997 236.67" fill="#151515"/><rect x="502.92" y="236.67" width="29.58" height="29.58" fill="#111111"/><path d="M 502.92 266.25 A 29.58 29.58 0 0 0 532.5 236.67 L 502.92 236.67" fill="#151515"/><rect x="473.33" y="266.25" width="29.58" height="29.58" fill="#111111"/><path d="M 473.33 295.83 A 29.58 29.58 0 0 1  502.90999999999997 266.25 L 502.90999999999997 295.83" fill="#111111"/><rect x="502.92" y="266.25" width="29.58" height="29.58" fill="#151515"/><path d="M 502.92 266.25 A 29.58 29.58 0 0 1 532.5 295.83 L 502.92 295.83" fill="#151515"/><rect x="532.5" y="236.66666666666666" width="59.166666666666664" height="59.166666666666664" fill="#1f1f1f"/><rect x="532.5" y="236.67" width="29.58" height="29.58" fill="#151515"/><path d="M 532.5 266.25 A 29.58 29.58 0 0 1  562.08 236.67 L 562.08 266.25" fill="#111111"/><rect x="562.08" y="236.67" width="29.58" height="29.58" fill="#111111"/><path d="M 562.08 236.67 A 29.58 29.58 0 0 1 591.6600000000001 266.25 L 562.08 266.25" fill="#151515"/><rect x="532.5" y="266.25" width="29.58" height="29.58" fill="#151515"/><path d="M 532.5 266.25 A 29.58 29.58 0 0 0 562.08 295.83 L 562.08 266.25" fill="#111111"/><rect x="562.08" y="266.25" width="29.58" height="29.58" fill="#151515"/><path d="M 562.08 295.83 A 29.58 29.58 0 0 0 591.6600000000001 266.25 L 562.08 266.25" fill="#151515"/><rect x="591.6666666666666" y="236.66666666666666" width="59.166666666666664" height="59.166666666666664" fill="#1f1f1f"/><rect x="591.67" y="236.67" width="29.58" height="29.58" fill="#151515"/><polygon points="621.25,236.67 621.25,266.25 591.67,266.25" fill="#111111"/><rect x="621.25" y="236.67" width="29.58" height="29.58" fill="#151515"/><polygon points="621.25,236.67 650.83,236.67 621.25,266.25" fill="#111111"/><rect x="591.67" y="266.25" width="29.58" height="29.58" fill="#151515"/><polygon points="591.67,266.25 621.25,266.25 621.25,295.83" fill="#151515"/><rect x="621.25" y="266.25" width="29.58" height="29.58" fill="#151515"/><polygon points="621.25,266.25 650.83,295.83 621.25,295.83" fill="#151515"/><rect x="0" y="295.83" width="59.17" height="59.17" fill="#151515"/><rect x="0" y="295.83" width="59.17" height="59.17" fill="#111111"/><rect x="59.17" y="295.83" width="59.17" height="59.17" fill="#151515"/><rect x="59.17" y="295.83" width="59.17" height="59.17" fill="#111111"/><rect x="118.33333333333333" y="295.8333333333333" width="59.166666666666664" height="59.166666666666664" fill="#1f1f1f"/><rect x="118.33" y="295.83" width="29.58" height="29.58" fill="#111111"/><path d="M 118.33 325.40999999999997 A 29.58 29.58 0 0 1 147.91 295.83 L 147.91 303.22499999999997 A 22.185 22.185 0 0 0 125.725 325.40999999999997" fill="#111111"/><rect x="147.92" y="295.83" width="29.58" height="29.58" fill="#151515"/><path d="M 147.92 295.83 A 29.58 29.58 0 0 1 177.5 325.40999999999997 L 170.105 325.40999999999997 A 22.185 22.185 0 0 0 147.92 303.22499999999997" fill="#111111"/><rect x="118.33" y="325.42" width="29.58" height="29.58" fill="#111111"/><path d="M 118.33 325.42 A 29.58 29.58 0 0 0 147.91 355 L 147.91 347.605 A 22.185 22.185 0 0 1 125.725 325.42" fill="#111111"/><rect x="147.92" y="325.42" width="29.58" height="29.58" fill="#111111"/><path d="M 147.92 355 A 29.58 29.58 0 0 0 177.5 325.42 L 170.105 325.42 A 22.185 22.185 0 0 1 147.92 347.605" fill="#151515"/><rect x="177.5" y="295.8333333333333" width="59.166666666666664" height="59.166666666666664" fill="#1f1f1f"/><rect x="177.5" y="295.83" width="29.58" height="29.58" fill="#151515"/><path d="M 177.5 295.83 A 29.58 29.58 0 0 1 207.07999999999998 325.40999999999997 L 177.5 325.40999999999997" fill="#151515"/><rect x="207.08" y="295.83" width="29.58" height="29.58" fill="#111111"/><path d="M 207.08 325.40999999999997 A 29.58 29.58 0 0 1  236.66000000000003 295.83 L 236.66000000000003 325.40999999999997" fill="#111111"/><rect x="177.5" y="325.42" width="29.58" height="29.58" fill="#151515"/><path d="M 177.5 355 A 29.58 29.58 0 0 0 207.07999999999998 325.42 L 177.5 325.42" fill="#151515"/><rect x="207.08" y="325.42" width="29.58" height="29.58" fill="#111111"/><path d="M 207.08 325.42 A 29.58 29.58 0 0 0 236.66000000000003 355 L 236.66000000000003 325.42" fill="#111111"/><rect x="236.67" y="295.83" width="59.17" height="59.17" fill="#151515"/><path d="M 236.67 295.83 A 59.17 59.17 0 0 0 295.84 355 L 295.84 295.83" fill="#151515"/><rect x="295.8333333333333" y="295.8333333333333" width="59.166666666666664" height="59.166666666666664" fill="#1f1f1f"/><rect x="295.83" y="295.83" width="29.58" height="29.58" fill="#151515"/><path d="M 295.83 325.40999999999997 A 29.58 29.58 0 0 1 325.40999999999997 295.83 L 325.40999999999997 303.22499999999997 A 22.185 22.185 0 0 0 303.22499999999997 325.40999999999997" fill="#111111"/><rect x="325.42" y="295.83" width="29.58" height="29.58" fill="#111111"/><path d="M 325.42 295.83 A 29.58 29.58 0 0 1 355 325.40999999999997 L 347.605 325.40999999999997 A 22.185 22.185 0 0 0 325.42 303.22499999999997" fill="#111111"/><rect x="295.83" y="325.42" width="29.58" height="29.58" fill="#151515"/><path d="M 295.83 325.42 A 29.58 29.58 0 0 0 325.40999999999997 355 L 325.40999999999997 347.605 A 22.185 22.185 0 0 1 303.22499999999997 325.42" fill="#151515"/><rect x="325.42" y="325.42" width="29.58" height="29.58" fill="#151515"/><path d="M 325.42 355 A 29.58 29.58 0 0 0 355 325.42 L 347.605 325.42 A 22.185 22.185 0 0 1 325.42 347.605" fill="#111111"/><rect x="355" y="295.8333333333333" width="59.166666666666664" height="59.166666666666664" fill="#1f1f1f"/><rect x="355" y="295.83" width="29.58" height="29.58" fill="#151515"/><polygon points="384.58,295.83 384.58,325.40999999999997 355,325.40999999999997" fill="#111111"/><rect x="384.58" y="295.83" width="29.58" height="29.58" fill="#151515"/><polygon points="384.58,295.83 414.15999999999997,295.83 384.58,325.40999999999997" fill="#111111"/><rect x="355" y="325.42" width="29.58" height="29.58" fill="#111111"/><polygon points="355,325.42 384.58,325.42 384.58,355" fill="#111111"/><rect x="384.58" y="325.42" width="29.58" height="29.58" fill="#151515"/><polygon points="384.58,325.42 414.15999999999997,355 384.58,355" fill="#111111"/><rect x="414.16666666666663" y="295.8333333333333" width="59.166666666666664" height="59.166666666666664" fill="#1f1f1f"/><rect x="414.17" y="295.83" width="29.58" height="29.58" fill="#111111"/><circle cx="428.96000000000004" cy="310.62" r="14.79" fill="#111111"/><rect x="443.75" y="295.83" width="29.58" height="29.58" fill="#151515"/><rect x="443.75" y="295.83" width="29.58" height="29.58" fill="#111111"/><rect x="414.17" y="325.42" width="29.58" height="29.58" fill="#151515"/><circle cx="428.96000000000004" cy="340.21000000000004" r="14.79" fill="#151515"/><rect x="443.75" y="325.42" width="29.58" height="29.58" fill="#151515"/><rect x="443.75" y="325.42" width="29.58" height="29.58" fill="#151515"/><rect x="473.33" y="295.83" width="59.17" height="59.17" fill="#111111"/><polygon points="473.33,295.83 532.5,295.83 473.33,355" fill="#111111"/><rect x="532.5" y="295.8333333333333" width="59.166666666666664" height="59.166666666666664" fill="#1f1f1f"/><rect x="532.5" y="295.83" width="29.58" height="29.58" fill="#111111"/><polygon points="562.08,295.83 562.08,325.40999999999997 532.5,325.40999999999997" fill="#111111"/><rect x="562.08" y="295.83" width="29.58" height="29.58" fill="#151515"/><polygon points="562.08,295.83 591.6600000000001,295.83 562.08,325.40999999999997" fill="#111111"/><rect x="532.5" y="325.42" width="29.58" height="29.58" fill="#151515"/><polygon points="532.5,325.42 562.08,325.42 562.08,355" fill="#151515"/><rect x="562.08" y="325.42" width="29.58" height="29.58" fill="#111111"/><polygon points="562.08,325.42 591.6600000000001,355 562.08,355" fill="#151515"/><rect x="591.67" y="295.83" width="59.17" height="59.17" fill="#151515"/><rect x="591.67" y="295.83" width="59.17" height="59.17" fill="#111111"/></g></svg>